<?xml version="1.0" encoding="utf-8"?>
<!-- Generator: Adobe Illustrator 20.1.0, SVG Export Plug-In . SVG Version: 6.00 Build 0)  -->
<svg version="1.1" id="Слой_1" xmlns="http://www.w3.org/2000/svg" xmlns:xlink="http://www.w3.org/1999/xlink" x="0px" y="0px"
	 viewBox="0 0 362 364" style="enable-background:new 0 0 362 364;" xml:space="preserve">
<style type="text/css">
	.st0{fill:#FAC663;fill-opacity:0.15;}
</style>
<path class="st0" d="M93.1,100.3c37.7,46.3-1.5,123.9-54,103.8C16.4,195.4,3.4,170.9,3,145.8C2.1,88,60.7,60.6,93.1,100.3z"/>
<path class="st0" d="M138.9,129.4C80.9,107.1,101.2,2.1,162.6,7c27.9,2.3,49.7,30.9,46.5,66.7C205.5,114,171.5,141.9,138.9,129.4z"
	/>
<path class="st0" d="M86.6,310.2c8.9,0.9,23.8,4.9,38.8,10.5c15.9,5.8,32,13.3,41.6,20.4c25.9,19.2,72.7,14.8,79.6-29
	c6.4-40.5-23.2-49.4-16.4-87.4c6.9-38.4-13.1-65.9-39.4-74.5c-24.4-7.9-54.3,0.4-73.4,31.2c-20.4,32.9-48.2,19.7-70.5,54
	C22.7,272.6,54.7,307.1,86.6,310.2z"/>
<path class="st0" d="M241,168.6c-16.4-6.3-26.9-21.2-29.1-38.8c-6.7-52.2,54.6-97.5,93.3-67.9C354.3,99.3,299,190.8,241,168.6z"/>
<path class="st0" d="M241.8,244.9c-1.2-52.7,64.3-91.3,99.8-57.6c42.7,40.6-14.6,122.8-70.4,101.4
	C253.3,281.8,242.2,265,241.8,244.9z"/>
</svg>
