<?xml version="1.0" encoding="utf-8"?>
<!-- Generator: Adobe Illustrator 20.1.0, SVG Export Plug-In . SVG Version: 6.00 Build 0)  -->
<svg version="1.1" xmlns="http://www.w3.org/2000/svg" xmlns:xlink="http://www.w3.org/1999/xlink" x="0px" y="0px"
	 viewBox="0 0 53 35" style="enable-background:new 0 0 53 35;" xml:space="preserve">
<style type="text/css">
	.st0{fill:#FFFDFB;}
	.st1{fill:none;stroke:#FFFDFB;stroke-width:2;stroke-linecap:round;stroke-linejoin:round;}
	.st2{fill:none;stroke:#FFFDFB;stroke-width:1;}
</style>
<g id="Слой_2">
</g>
<g id="Слой_1">
	<path class="st0" d="M28.2,18.6c3.3,0,6,3.4,6,4.3c0,0.9-2.7,3.7-6,3.7s-5.7-3.7-5.7-3.7S24.9,18.6,28.2,18.6z"/>
	<path class="st1" d="M18.9,19.5l3.6,3.4 M22.5,22.9l-3.6,3.4 M22.5,22.9c0,0,2.4,3.7,5.7,3.7s6-2.9,6-3.7c0-0.9-2.7-4.3-6-4.3
		S22.5,22.9,22.5,22.9z"/>
	<path class="st2" d="M48.8,11.1L48.8,11.1c-0.1-0.5-0.5-0.9-1-0.9h-4.1h-0.4l-0.1-0.4C42.6,7,40,6.2,39.7,6.1L39.5,6l-0.1-0.2
		C38,3.1,35.2,3,34.8,3l-0.2,0l-0.1-0.1c-1.7-1.8-4-1.8-5.2-1.5l-0.2,0l-0.2-0.1c-1.1-0.6-3.3-1.2-5.5,0l-0.2,0.1l-0.2,0
		c-1.2-0.3-3.5-0.3-5.2,1.5L17.7,3l-0.2,0c-0.3,0-3.2,0.1-4.6,2.8L12.8,6l-0.2,0.1C12.3,6.2,9.8,7,9.1,9.8L9,10.2H8.6H4.6
		c-0.5,0-1,0.4-1,0.9h0L0.2,33.5l0,0c0,0.3,0,0.6,0.2,0.8 M48.8,11.1l3.3,22.4c0,0.3,0,0.6-0.2,0.8 M48.8,11.1l3.1,23.2 M0.4,34.3
		c0.2,0.2,0.5,0.3,0.8,0.3h49.9c0.3,0,0.6-0.1,0.8-0.4 M0.4,34.3l51.5,0 M0.7,33.8l-0.1,0.6h0.6h49.9h0.6l-0.1-0.6l-3.5-22.9
		l-0.1-0.4h-0.4H4.7H4.3l-0.1,0.4L0.7,33.8z"/>
</g>
</svg>
